<svg xmlns="http://www.w3.org/2000/svg" xmlns:xlink="http://www.w3.org/1999/xlink" width="1000" zoomAndPan="magnify" viewBox="0 0 750 749.999995" height="1000" preserveAspectRatio="xMidYMid meet" version="1.0"><path fill="#db4a2b" d="M 401.101562 591.359375 C 392.578125 596.085938 384.136719 600.96875 375.496094 605.472656 C 371.160156 607.730469 367.789062 610.097656 368.601562 615.730469 C 368.90625 617.84375 367.613281 619.835938 367.339844 622.003906 C 367.042969 624.382812 364.015625 623.460938 362.28125 624.214844 C 360.816406 624.855469 360.488281 623.347656 360.191406 622.21875 C 359.964844 621.359375 359.617188 620.523438 359.449219 619.652344 C 358.355469 613.910156 358.171875 613.75 352.898438 616.566406 C 347.761719 619.3125 342.726562 622.253906 337.613281 625.128906 C 336.574219 623.996094 338.09375 622.855469 337.109375 621.726562 C 336.832031 621.460938 336.351562 621.6875 335.921875 621.941406 C 321.84375 630.25 307.402344 637.941406 293.796875 647.046875 C 281.671875 655.160156 269.492188 663.203125 257.773438 671.894531 C 253.417969 675.125 249.285156 678.710938 245.394531 682.492188 C 243.085938 684.738281 242.421875 682.550781 241.347656 681.5625 C 239.464844 679.832031 241.542969 679.210938 242.476562 678.484375 C 248.0625 674.152344 253.699219 669.894531 259.320312 665.609375 C 259.132812 665.277344 258.941406 664.949219 258.753906 664.621094 C 256.421875 666.046875 254.027344 667.378906 251.78125 668.929688 C 249.589844 670.441406 247.429688 672.042969 245.476562 673.84375 C 243.410156 675.75 242.269531 674.515625 240.785156 673.082031 C 238.78125 671.144531 240.851562 670.375 241.761719 669.554688 C 244.308594 667.265625 247.042969 665.183594 249.6875 663 C 250.613281 662.238281 251.859375 661.636719 251.535156 659.648438 C 246.773438 662.246094 243.050781 665.761719 239.027344 668.878906 C 237.15625 670.328125 235.441406 673.269531 232.40625 670.410156 C 232.121094 670.140625 230.9375 670.578125 230.328125 670.949219 C 228.714844 671.925781 227.070312 672.109375 225.898438 670.59375 C 224.835938 669.222656 222.054688 668.324219 224.015625 665.683594 C 224.640625 664.839844 224.375 663.78125 223.613281 663.292969 C 220.464844 661.269531 218.183594 658.042969 214.066406 657.296875 C 210.890625 656.722656 206.707031 656.574219 207.078125 651.394531 C 207.136719 650.566406 206.480469 650.917969 206.027344 651.007812 C 204.96875 651.222656 202.960938 651.882812 203.121094 650.777344 C 203.378906 648.996094 202.59375 647.113281 203.675781 645.390625 C 207.503906 639.289062 211.898438 633.636719 217.320312 628.894531 C 220.652344 625.980469 224.1875 623.28125 227.773438 620.683594 C 247.234375 606.582031 267.839844 594.238281 288.328125 581.738281 C 300.992188 574.015625 314.089844 567.003906 327.058594 559.796875 C 329.050781 558.6875 330.078125 557.320312 330.445312 555.152344 C 332.78125 541.359375 335.789062 527.644531 337.355469 513.765625 C 338.90625 500.035156 343.074219 486.960938 345.734375 473.523438 C 348.523438 459.445312 351.902344 445.488281 354.058594 431.277344 C 354.851562 426.035156 355.960938 420.84375 356.140625 415.296875 C 354.6875 418.660156 353.238281 422.019531 351.785156 425.382812 C 350.964844 421.226562 352.386719 417.371094 353.257812 413.527344 C 356.949219 397.167969 361.679688 381.074219 366.058594 364.890625 C 374.894531 332.261719 384.179688 299.761719 394.023438 267.433594 C 396.746094 258.496094 398.171875 249.066406 402.671875 240.6875 C 401.957031 245.144531 402.007812 249.726562 400.449219 254.058594 C 403.609375 247.648438 406.351562 241.136719 405.871094 233.644531 C 405.078125 235.191406 404.285156 236.734375 403.492188 238.28125 C 404.660156 230.609375 407.964844 223.519531 409.515625 215.949219 C 409.738281 214.863281 410.015625 213.789062 410.527344 211.582031 C 404.875 218.726562 399.738281 224.851562 395.007812 231.273438 C 387.230469 241.828125 378.578125 251.667969 370.53125 261.996094 C 358.410156 277.550781 345.089844 292.078125 332.554688 307.277344 C 330.621094 309.621094 329.199219 312.3125 327.25 314.675781 C 325.257812 317.09375 324.410156 314.5625 323.269531 314.078125 C 321.539062 313.34375 322.726562 312.246094 323.449219 311.40625 C 330.246094 303.511719 337.066406 295.636719 343.855469 287.734375 C 344.886719 286.535156 346.070312 285.390625 346.265625 283.621094 C 339.089844 290.773438 331.941406 297.917969 325.640625 305.855469 C 324.691406 307.054688 324 308.808594 321.757812 307.101562 C 319.863281 305.65625 319.253906 304.613281 320.929688 302.640625 C 324.878906 297.992188 328.738281 293.265625 332.597656 288.542969 C 333.675781 287.21875 335.046875 285.980469 334.804688 283.152344 C 329.109375 290.007812 323.277344 295.78125 318.378906 302.394531 C 316.949219 304.324219 315.761719 307.054688 312.40625 305.128906 C 312.03125 304.914062 311.078125 305.648438 310.417969 305.988281 C 307.3125 307.589844 303.582031 305.535156 303.597656 302.085938 C 303.605469 301.089844 303.59375 300.148438 302.761719 299.792969 C 299.367188 298.351562 296.652344 295.445312 292.558594 295.441406 C 289.140625 295.433594 285.289062 295.675781 284.585938 290.777344 C 284.457031 289.867188 283.914062 290.441406 283.542969 290.554688 C 282.539062 290.863281 281.304688 292.171875 280.578125 290.71875 C 279.898438 289.363281 279.308594 287.414062 279.777344 286.128906 C 281.734375 280.761719 283.683594 275.445312 286.925781 270.546875 C 291.515625 263.609375 297.210938 257.644531 302.582031 251.441406 C 325.570312 224.898438 347.175781 197.238281 368.984375 169.734375 C 385.574219 148.8125 401.785156 127.582031 418.582031 106.828125 C 428.105469 95.0625 438.445312 83.949219 452.355469 77.050781 C 476.199219 65.230469 502.953125 81.765625 503.085938 108.429688 C 503.160156 123.152344 498.765625 137.074219 494.992188 151.039062 C 490.722656 166.855469 485.726562 182.480469 480.957031 198.160156 C 480.183594 200.699219 479.011719 203.132812 477.894531 205.550781 C 474.207031 213.542969 473.683594 222.402344 470.769531 230.675781 C 466.765625 242.042969 463.601562 253.777344 461.011719 265.558594 C 459.195312 273.839844 457.550781 282.136719 454.535156 290.039062 C 452.359375 295.742188 450.726562 301.542969 449.472656 307.484375 C 448.046875 314.226562 444.613281 320.292969 442.710938 326.832031 C 432.441406 362.082031 422.257812 397.355469 412.503906 432.757812 C 406.015625 456.304688 400.113281 479.976562 394.4375 503.714844 C 392.851562 510.339844 391.773438 517.085938 390.253906 524.851562 C 394.269531 522.101562 398.351562 522.089844 401.726562 520.253906 C 415.652344 512.6875 430.160156 506.300781 443.976562 498.464844 C 457.53125 490.777344 470.683594 482.226562 485.226562 476.355469 C 490.753906 474.121094 496.199219 470.996094 501.949219 470.175781 C 507.71875 469.355469 513.554688 468.386719 519.414062 468.023438 C 521.953125 467.867188 524.460938 467.628906 526.972656 467.207031 C 528.675781 466.917969 530.832031 465.929688 531.722656 468.714844 C 531.8125 469.003906 532.597656 469.273438 533.023438 469.21875 C 536.777344 468.75 540.273438 470.074219 543.851562 470.769531 C 544.96875 470.988281 547.429688 470.871094 546.828125 471.949219 C 545.824219 473.753906 547.382812 476.9375 544.195312 477.476562 C 539.460938 478.273438 534.953125 480.566406 530.023438 479.976562 C 525.230469 479.40625 521.210938 481.574219 516.949219 483.070312 C 506.039062 486.902344 495.53125 491.5625 485.765625 497.84375 C 490.839844 495.519531 495.878906 493.121094 501.027344 490.960938 C 506.894531 488.5 512.898438 486.488281 519.015625 484.777344 C 521.273438 484.144531 523.476562 484.078125 525.882812 485.027344 C 525.078125 486.085938 523.382812 487.296875 525.230469 488.394531 C 527.539062 489.769531 526.175781 490.363281 524.988281 491.238281 C 523.328125 492.464844 520.632812 492.796875 521.492188 496.109375 C 521.746094 497.085938 519.84375 497.394531 518.804688 497.785156 C 501.582031 504.273438 486.027344 513.847656 470.683594 523.816406 C 470.179688 524.144531 469.742188 524.570312 468.78125 525.347656 C 470.898438 525.535156 471.898438 524.429688 473.121094 524.027344 C 475.445312 523.257812 477.515625 522.160156 480.160156 524.253906 C 481.867188 525.605469 484.660156 525.875 487.207031 524.15625 C 493.074219 520.191406 500.152344 519.683594 506.78125 517.898438 C 507.628906 517.671875 508.523438 517.535156 509.308594 517.167969 C 514.882812 514.554688 521.085938 513.996094 526.785156 511.796875 C 527.582031 511.488281 528.539062 511.460938 529.40625 511.515625 C 531.574219 511.640625 531.878906 513.675781 532.285156 515.078125 C 532.667969 516.398438 530.90625 516.148438 530.082031 516.433594 C 524.097656 518.5 517.855469 519.9375 512.207031 522.824219 C 504.792969 526.617188 497.605469 530.863281 490.316406 534.90625 C 484.730469 538.003906 480.335938 542.644531 475.378906 546.554688 C 474.433594 547.300781 473.691406 548.308594 472.730469 549.328125 C 474.824219 550.164062 476.4375 548.082031 478.398438 549.371094 C 475.503906 552.308594 472.164062 554.53125 468.695312 556.53125 C 459.902344 561.601562 450.839844 566.15625 441.8125 570.785156 C 434.148438 574.714844 426.601562 578.925781 418.929688 582.851562 C 413.320312 585.722656 407.945312 589.125 401.828125 590.914062 C 403.453125 589.644531 404.433594 587.730469 406.207031 586.523438 C 404.105469 587.292969 401.71875 587.183594 400.082031 588.972656 C 399.523438 589.585938 398.285156 589.984375 398.71875 590.941406 C 399.105469 591.785156 400.261719 591.382812 401.101562 591.359375 Z M 370.039062 240.746094 C 371.59375 240.230469 372.378906 238.851562 373.371094 237.726562 C 383.910156 225.820312 393.082031 212.808594 403.246094 200.597656 C 405.558594 197.8125 407.417969 194.648438 409.691406 191.359375 C 407.898438 191.761719 407.390625 193.023438 406.652344 193.9375 C 401.621094 200.167969 396.449219 206.296875 391.703125 212.742188 C 384.695312 222.253906 376.542969 230.878906 370.132812 240.847656 C 366.621094 244.007812 363.710938 247.632812 361.574219 251.867188 C 364.679688 248.378906 368.304688 245.289062 370.039062 240.746094 Z M 373.183594 442.28125 C 370.425781 447.476562 369.433594 453.292969 366.773438 458.492188 C 365.980469 460.042969 366.726562 463.683594 362.914062 461.738281 C 362.804688 461.683594 362.375 461.941406 362.324219 462.121094 C 361.355469 465.464844 358.015625 467.445312 357.332031 470.96875 C 355.398438 480.957031 351.75 490.476562 349.128906 500.230469 C 345.890625 512.285156 341.453125 524.089844 339.875 536.59375 C 339.445312 539.992188 338.710938 543.363281 337.929688 546.703125 C 337.726562 547.566406 337.746094 548.496094 336.738281 549.40625 C 335.722656 550.324219 335.042969 553.097656 335.691406 554.042969 C 336.664062 555.460938 338.324219 553.734375 339.601562 553.0625 C 342.300781 551.652344 344.835938 549.578125 347.695312 548.925781 C 351.988281 547.949219 352.828125 545.175781 353.359375 541.566406 C 356.742188 518.550781 361.382812 495.761719 366.066406 472.988281 C 368.179688 462.699219 370.792969 452.511719 373.183594 442.28125 Z M 362.578125 263.917969 C 371.28125 257.035156 376.933594 247.511719 383.667969 238.894531 C 375.324219 246.085938 368.96875 254.980469 362.578125 263.917969 Z M 295.277344 630.308594 C 287.328125 633.972656 280.382812 639.195312 273.429688 644.40625 C 281.070312 640.253906 288.621094 635.972656 295.277344 630.308594 Z M 367.492188 536.917969 C 367.902344 536.992188 368.3125 537.066406 368.722656 537.144531 C 370.585938 526.4375 372.449219 515.730469 374.3125 505.027344 C 374.101562 504.988281 373.886719 504.949219 373.675781 504.910156 C 371.613281 515.582031 369.554688 526.25 367.492188 536.917969 Z M 267.273438 658.902344 C 272.683594 657.894531 275.558594 654.53125 279.003906 652.1875 C 279.160156 652.085938 279.175781 651.445312 279.019531 651.292969 C 278.683594 650.960938 278.15625 650.550781 277.6875 650.980469 C 274.730469 653.675781 270.429688 654.535156 267.273438 658.902344 Z M 398.925781 258.671875 C 395.863281 263.277344 396.496094 267.878906 396.410156 272.527344 C 398.527344 268.226562 399.054688 263.796875 398.925781 258.671875 Z M 339.53125 278.460938 C 344.160156 275.210938 346.542969 270.144531 349.878906 265.847656 C 346.09375 269.78125 342.035156 273.488281 339.53125 278.460938 Z M 380.441406 328.027344 C 380.539062 328.058594 380.640625 328.085938 380.742188 328.113281 C 381.929688 324.117188 383.148438 320.125 384.28125 316.109375 C 384.429688 315.585938 384.953125 314.628906 383.5 314.585938 C 382.351562 314.554688 382.714844 315.242188 382.617188 315.78125 C 381.894531 319.863281 381.167969 323.945312 380.441406 328.027344 Z M 311.40625 620.488281 C 305.984375 622.644531 302.355469 625.558594 298.675781 628.394531 C 302.9375 626.5 307.113281 624.46875 311.40625 620.488281 Z M 262.914062 651.683594 C 259.585938 653.40625 256.125 654.941406 253.90625 658.195312 C 257.53125 656.890625 259.871094 653.800781 262.914062 651.683594 Z M 414.582031 184.074219 C 417.5 182.335938 419.445312 179.859375 420.417969 176.644531 C 418.472656 179.121094 416.527344 181.597656 414.582031 184.074219 Z M 414.582031 184.074219 " fill-opacity="1" fill-rule="nonzero"/></svg>