<svg xmlns="http://www.w3.org/2000/svg" xmlns:xlink="http://www.w3.org/1999/xlink" width="1000" zoomAndPan="magnify" viewBox="0 0 750 749.999995" height="1000" preserveAspectRatio="xMidYMid meet" version="1.0"><path fill="#000000" d="M 408.089844 589.613281 C 393.996094 595.964844 379.960938 602.445312 365.773438 608.582031 C 362.066406 610.183594 358.707031 613.058594 354.011719 612.988281 C 354.777344 609.726562 358.625 609.882812 359.988281 606.363281 C 350.484375 609.617188 342.546875 614.175781 334.589844 618.835938 C 340.65625 619.765625 344.414062 613.558594 350.707031 614.8125 C 338.28125 620.765625 325.859375 626.71875 313.382812 632.695312 C 312.316406 631.242188 314.515625 629.539062 313.140625 628.652344 C 311.773438 627.765625 310.46875 629.226562 309.242188 629.871094 C 299.121094 635.183594 288.847656 640.242188 278.964844 645.972656 C 268.808594 651.863281 259.058594 658.457031 249.097656 664.683594 C 231.425781 675.734375 214.074219 687.269531 197.347656 699.714844 C 191.8125 703.832031 186.65625 708.507812 181.617188 713.246094 C 179.164062 715.550781 177.855469 714.921875 176.015625 712.722656 C 173.453125 709.660156 176.71875 709.179688 178.003906 708.164062 C 184.074219 703.359375 190.3125 698.761719 196.433594 694.019531 C 197.746094 693.007812 199.53125 692.324219 200.015625 689.75 C 194.089844 692.886719 188.867188 696.222656 184.027344 700.195312 C 178.476562 704.753906 178.453125 704.726562 172.960938 700.308594 C 171.589844 702.089844 170.214844 703.871094 168.496094 706.105469 C 167.800781 703.835938 168.367188 701.578125 165.894531 700.359375 C 163.769531 699.3125 162.195312 699.074219 159.851562 699.699219 C 156.648438 700.550781 152.847656 696 153.835938 692.734375 C 154.5 690.554688 153.269531 689.929688 152.191406 688.445312 C 148.371094 683.15625 142.414062 682.636719 137.117188 680.53125 C 134.28125 679.40625 131.300781 678.019531 132.445312 673.851562 C 130.832031 672.71875 127.578125 675.574219 127.574219 673.222656 C 127.570312 670.984375 126.242188 668.152344 128.816406 665.773438 C 132.765625 662.121094 134.328125 656.734375 137.871094 652.460938 C 144.082031 644.960938 151.519531 639.226562 159.113281 633.632812 C 168.742188 626.542969 178.875 620.144531 188.839844 613.523438 C 191.296875 611.890625 193.417969 610.0625 195.089844 607.566406 C 225.53125 562.066406 258.078125 518.085938 290.867188 474.28125 C 292.746094 471.773438 294.523438 469.179688 296.023438 466.390625 C 291.875 469.347656 289.703125 474.136719 285.9375 477.25 C 281.691406 480.761719 279.5625 486.433594 272.113281 486.988281 C 267.773438 487.308594 262.648438 491.886719 259.546875 496.820312 C 254.269531 505.214844 247.832031 512.808594 240.828125 519.714844 C 232.488281 527.941406 225.949219 537.59375 218.238281 546.285156 C 216.902344 547.792969 215.484375 549.230469 214.105469 550.699219 L 213.957031 550.824219 C 212.835938 550.027344 212.117188 550.699219 211.617188 551.59375 C 207.40625 559.117188 202.199219 566 196.730469 572.554688 C 184.9375 586.691406 175.277344 602.289062 164.847656 617.367188 C 161.324219 622.457031 157.925781 628.003906 150.546875 628.675781 C 150.707031 626.75 151.980469 625.128906 153 623.417969 C 161.960938 608.378906 171.839844 593.964844 182.011719 579.71875 C 191.425781 566.539062 201.609375 553.886719 210.492188 540.382812 C 227.15625 515.054688 247.019531 492.15625 264.398438 467.40625 C 273.695312 454.171875 282.328125 440.464844 291.246094 426.960938 C 291.582031 426.453125 292.015625 425.878906 291.320312 424.976562 C 287.429688 427.359375 285.480469 432.082031 280.453125 433.433594 C 283.710938 428.769531 286.796875 423.972656 290.253906 419.460938 C 303.34375 402.367188 316.761719 385.519531 329.675781 368.292969 C 357.070312 331.757812 383.082031 294.316406 404.960938 254.078125 C 410.675781 243.570312 414.570312 232.144531 421.394531 222.269531 C 419.292969 227.820312 419.023438 233.917969 416.085938 239.207031 C 421.074219 231.417969 425.78125 223.535156 426.625 213.867188 C 425.269531 215.984375 423.914062 218.101562 422.5625 220.214844 C 427.074219 207.261719 432.140625 194.46875 434.691406 180.910156 C 437.738281 164.710938 439.101562 148.53125 433.375 132.554688 C 433.171875 131.988281 433.113281 131.367188 432.875 130.230469 C 437.226562 131.507812 436.570312 136.335938 439.515625 138.210938 C 438.152344 126.472656 429.542969 115.976562 420.789062 115.953125 C 423.726562 120.496094 430.84375 120.269531 431.71875 127.339844 C 425.117188 120.789062 418.015625 117.105469 409 116.597656 C 400.527344 116.121094 392.445312 117.992188 384.082031 118.597656 C 387.035156 117.511719 389.308594 115.519531 391.570312 113.507812 C 381.929688 113.617188 373.09375 117.605469 364.308594 120.800781 C 324.808594 135.183594 292.449219 159.851562 265.222656 191.695312 C 254.3125 204.457031 245.796875 218.726562 237.761719 233.359375 C 227.65625 251.777344 225.847656 271.367188 229.25 291.761719 C 230.417969 298.769531 229.9375 305.964844 231.542969 312.945312 C 232.109375 315.394531 232.039062 317.460938 228.3125 317.644531 C 224.140625 317.851562 225.402344 314.917969 225.265625 313.105469 C 224.28125 300.035156 223.492188 286.949219 222.574219 273.871094 C 222.453125 272.160156 222.691406 270.316406 221.222656 268.195312 C 220.339844 272.347656 220.839844 276.015625 220.992188 279.613281 C 221.398438 289.167969 221.910156 298.71875 222.628906 308.253906 C 222.84375 311.066406 222.367188 312.171875 219.320312 312.738281 C 215.585938 313.433594 215.625 311.164062 215.414062 308.953125 C 214.679688 301.371094 214.0625 293.78125 213.402344 286.191406 C 213.167969 283.46875 213.046875 280.714844 210.695312 277.113281 C 210.695312 280.230469 210.484375 282.199219 210.730469 284.105469 C 211.964844 293.578125 211.515625 303.175781 213 312.636719 C 213.363281 314.9375 214.328125 318.027344 210.285156 318.714844 C 209.332031 318.878906 209.125 320.128906 208.804688 321.066406 C 207.105469 326.050781 202.628906 327.324219 198.832031 323.859375 C 198.066406 323.160156 197.222656 322.328125 196.359375 322.664062 C 191.597656 324.53125 186.128906 324.308594 182.222656 328.796875 C 178.621094 332.9375 174.078125 332.890625 171.175781 329.765625 C 170.082031 331.183594 170.523438 334.359375 168.1875 333.992188 C 166.296875 333.695312 163.558594 331.921875 163.144531 330.300781 C 161.671875 324.5625 157.820312 320.042969 156.828125 313.847656 C 151.769531 282.296875 149.65625 251.335938 161.816406 220.5 C 178.484375 178.21875 204.933594 143.273438 238.105469 112.980469 C 254.769531 97.765625 272.722656 84.183594 292.132812 72.730469 C 321.199219 55.585938 352.128906 42.859375 385.75 38.628906 C 417.417969 34.640625 447.675781 39.003906 474.277344 58.742188 C 493.433594 72.957031 504.597656 92.527344 511.730469 114.699219 C 517.734375 133.367188 518.675781 152.5 515.441406 171.863281 C 513.847656 181.410156 515.105469 191.222656 512.488281 200.738281 C 508.363281 215.730469 504.320312 230.722656 498.3125 245.113281 C 490.566406 263.664062 484.785156 283.175781 473.410156 299.988281 C 467.035156 309.410156 462.992188 320.175781 456.324219 329.269531 C 441.984375 348.828125 429.191406 369.449219 414.453125 388.742188 C 387.617188 423.875 360.644531 458.875 332.65625 493.101562 C 316.464844 512.894531 301.304688 533.539062 285.71875 553.828125 C 284.777344 555.054688 282.769531 556.574219 283.785156 557.910156 C 285.132812 559.6875 287.058594 557.816406 288.46875 557.0625 C 304.425781 548.511719 320.609375 540.339844 337.410156 533.683594 C 350.691406 528.417969 363.242188 521.679688 376.328125 516.0625 C 382.386719 513.464844 387.714844 509.394531 394.066406 507.144531 C 426.953125 495.507812 459.75 483.601562 492.597656 471.84375 C 517.832031 462.8125 543.078125 453.824219 568.351562 444.910156 C 575.082031 442.535156 582.511719 443.441406 589.222656 440.59375 C 591.398438 439.667969 593.804688 439.089844 596.105469 438.367188 C 598.113281 437.738281 600.484375 434.554688 602.527344 438.582031 C 602.652344 438.832031 604.304688 438.363281 605.222656 438.132812 C 609.886719 436.960938 614.539062 435.742188 619.203125 434.574219 C 620.847656 434.160156 621.46875 434 622.144531 436.492188 C 623.464844 441.378906 620.726562 442.773438 617.71875 445.296875 C 611.722656 450.324219 604.109375 451.628906 597.695312 455.175781 C 587.335938 460.902344 576.535156 465.449219 565.855469 470.351562 C 560.039062 473.027344 554.136719 475.519531 548.394531 478.394531 C 566.28125 472.917969 583.019531 464.164062 601.609375 459.503906 C 598.371094 463.4375 601.589844 464.414062 603.730469 465.578125 C 602.769531 467.960938 600.523438 468.691406 599.292969 470.335938 C 598.386719 471.546875 595.746094 471.992188 597.703125 474.839844 C 598.863281 476.53125 595.953125 477.128906 594.699219 477.769531 C 584.625 482.921875 574.164062 487.214844 563.738281 491.582031 C 548.996094 497.761719 534.253906 503.945312 519.519531 510.140625 C 518.796875 510.445312 518.136719 510.894531 517.539062 511.757812 C 521.359375 511.535156 524.945312 509.878906 528.792969 509.867188 C 530.109375 509.863281 530.78125 509.722656 531.847656 510.96875 C 534.375 513.921875 537.792969 515.054688 541.628906 513.441406 C 552.242188 508.976562 563.699219 508.320312 574.773438 505.941406 C 577.421875 505.375 579.824219 503.6875 582.46875 503.082031 C 591.972656 500.902344 600.730469 496.765625 609.648438 493.03125 C 613.441406 491.441406 616.8125 491.628906 619.882812 495.644531 C 615.433594 497.890625 611.085938 500.632812 606.371094 502.363281 C 591.519531 507.804688 577.207031 514.542969 562.515625 520.324219 C 553.832031 523.742188 544.996094 526.898438 536.492188 530.71875 C 528.964844 534.105469 521.953125 538.640625 514.359375 542.867188 C 516.960938 544.839844 519.53125 542.167969 521.523438 544.652344 C 517.480469 547.523438 512.957031 549.414062 508.394531 551.101562 C 494.625 556.203125 480.835938 561.304688 467.179688 566.664062 C 454.128906 571.789062 441.121094 577.121094 428.171875 582.554688 C 421.953125 585.160156 415.542969 587.308594 409.230469 589.667969 C 410.398438 587.402344 412.332031 585.894531 415.507812 584.253906 C 409.890625 584.511719 406.035156 585.808594 402.5625 590.101562 C 404.980469 589.890625 406.535156 589.75 408.089844 589.613281 Z M 248.417969 562.871094 C 240.714844 570.28125 235.191406 579.324219 229.449219 588.203125 C 236.4375 580.242188 242.980469 571.953125 248.304688 562.761719 C 253.003906 557.90625 256.390625 552.128906 259.9375 546.464844 C 256.039062 551.890625 250.8125 556.402344 248.417969 562.871094 Z M 227.722656 215.113281 C 228.210938 214.726562 228.84375 214.433594 229.160156 213.941406 C 241.460938 194.804688 255.132812 176.8125 272 161.410156 C 274.554688 159.078125 276.757812 156.351562 279.445312 153.460938 C 277.03125 153.476562 276.152344 155.007812 274.972656 155.9375 C 268.214844 161.285156 262.351562 167.589844 256.785156 174.105469 C 245.863281 186.890625 234.78125 199.605469 227.839844 215.230469 C 223.648438 219.859375 221.726562 225.59375 219.847656 231.347656 C 222.847656 226.117188 226.289062 221.09375 227.722656 215.113281 Z M 242.167969 213.398438 C 235.027344 222.972656 228.496094 233.003906 225.921875 245.109375 C 232.769531 235.347656 236.632812 223.984375 242.167969 213.398438 Z M 220.84375 661.546875 C 221.179688 661.988281 221.519531 662.429688 221.859375 662.871094 C 232.105469 656.070312 242.355469 649.269531 252.601562 642.472656 C 240.539062 646.582031 231.324219 655.035156 220.84375 661.546875 Z M 317.621094 124.480469 C 306.824219 129.96875 297.515625 137.378906 288.578125 145.304688 C 298.179688 138.199219 308.273438 131.796875 317.621094 124.480469 Z M 212.632812 680.691406 C 219.488281 680.15625 223.667969 675.136719 228.503906 671.214844 C 222.449219 673.097656 217.097656 676.144531 212.632812 680.691406 Z M 217.394531 237.925781 C 211 248.496094 208.097656 262.773438 211.238281 268.574219 C 209.78125 258.085938 214.171875 248.789062 217.394531 237.925781 Z M 175.792969 697.054688 C 180.355469 692.921875 185.972656 690.011719 189.460938 684.804688 C 183.890625 687.796875 178.273438 690.726562 175.792969 697.054688 Z M 338.339844 113.929688 C 346.632812 110.40625 354.921875 106.882812 363.214844 103.359375 C 354.457031 105.78125 345.84375 108.542969 338.339844 113.929688 Z M 406.40625 262.070312 C 409.371094 256.691406 412.839844 252.078125 412.320312 245.277344 C 408.507812 250.503906 406.542969 255.664062 406.40625 262.070312 Z M 442.023438 164.523438 C 442.023438 159.878906 442.363281 155.191406 441.785156 150.621094 C 441.640625 149.464844 440.414062 147.753906 439.851562 146.136719 C 439.6875 149.226562 439.304688 152.410156 440.210938 155.167969 C 441.246094 158.316406 440.714844 161.507812 442.023438 164.523438 Z M 276.53125 627.765625 C 269.253906 630.605469 264.140625 634.273438 259.085938 638.046875 C 264.777344 635.351562 270.726562 633.09375 276.53125 627.765625 Z M 283.277344 623.8125 C 283.480469 624.25 283.683594 624.6875 283.886719 625.125 C 287.773438 622.914062 291.65625 620.703125 295.542969 618.496094 C 295.390625 618.230469 295.242188 617.96875 295.089844 617.707031 C 291.152344 619.742188 287.214844 621.777344 283.277344 623.8125 Z M 419.808594 583.050781 C 423.03125 582.585938 424.847656 581.128906 425.511719 577.976562 C 423.085938 578.875 420.394531 579.210938 419.808594 583.050781 Z M 419.808594 583.050781 " fill-opacity="1" fill-rule="nonzero"/><path fill="#000000" d="M 341.824219 133.96875 C 344.175781 131.875 346.480469 129.664062 350.917969 129.160156 C 347.859375 132.292969 344.9375 133.316406 341.824219 133.96875 Z M 341.824219 133.96875 " fill-opacity="1" fill-rule="nonzero"/></svg>