<svg xmlns="http://www.w3.org/2000/svg" xmlns:xlink="http://www.w3.org/1999/xlink" width="1052" zoomAndPan="magnify" viewBox="0 0 788.88 209.999996" height="280" preserveAspectRatio="xMidYMid meet" version="1.0"><defs><g/><clipPath id="47bbb25658"><path d="M 182.964844 60 L 257.953125 60 L 257.953125 147.550781 L 182.964844 147.550781 Z M 182.964844 60 " clip-rule="nonzero"/></clipPath><clipPath id="8533710420"><path d="M 182.964844 60 L 257.953125 60 L 257.953125 147.550781 L 182.964844 147.550781 Z M 182.964844 60 " clip-rule="nonzero"/></clipPath><clipPath id="72f639c977"><path d="M 283.421875 59.816406 L 356.910156 59.816406 L 356.910156 147.550781 L 283.421875 147.550781 Z M 283.421875 59.816406 " clip-rule="nonzero"/></clipPath><clipPath id="af676258c0"><path d="M 366.589844 59.816406 L 440.078125 59.816406 L 440.078125 147.550781 L 366.589844 147.550781 Z M 366.589844 59.816406 " clip-rule="nonzero"/></clipPath><clipPath id="6afa0839a3"><path d="M 449.757812 59.816406 L 523.246094 59.816406 L 523.246094 147.550781 L 449.757812 147.550781 Z M 449.757812 59.816406 " clip-rule="nonzero"/></clipPath><clipPath id="5742dd1dc0"><path d="M 548.671875 59.816406 L 622.160156 59.816406 L 622.160156 147.550781 L 548.671875 147.550781 Z M 548.671875 59.816406 " clip-rule="nonzero"/></clipPath><clipPath id="57235d24b6"><path d="M 631.839844 59.816406 L 705.328125 59.816406 L 705.328125 147.550781 L 631.839844 147.550781 Z M 631.839844 59.816406 " clip-rule="nonzero"/></clipPath><clipPath id="72b107b5ed"><path d="M 715.007812 59.816406 L 788.496094 59.816406 L 788.496094 147.550781 L 715.007812 147.550781 Z M 715.007812 59.816406 " clip-rule="nonzero"/></clipPath><clipPath id="16c12af176"><path d="M 261.335938 125.785156 L 283.082031 125.785156 L 283.082031 147.535156 L 261.335938 147.535156 Z M 261.335938 125.785156 " clip-rule="nonzero"/></clipPath><clipPath id="e2a45effa0"><path d="M 526.925781 125.785156 L 548.671875 125.785156 L 548.671875 147.535156 L 526.925781 147.535156 Z M 526.925781 125.785156 " clip-rule="nonzero"/></clipPath></defs><g fill="#000000" fill-opacity="1"><g transform="translate(35.631704, 144.09812)"><g><path d="M 24.21875 -28.015625 L 24.21875 0 L 6.921875 0 L 6.921875 -78.40625 L 36.328125 -78.40625 C 40.554688 -78.40625 44.492188 -77.347656 48.140625 -75.234375 C 51.796875 -73.128906 54.738281 -70.191406 56.96875 -66.421875 C 59.195312 -62.648438 60.3125 -58.269531 60.3125 -53.28125 C 60.3125 -48.894531 59.503906 -45.007812 57.890625 -41.625 C 56.273438 -38.238281 54.117188 -35.46875 51.421875 -33.3125 C 48.734375 -31.164062 45.738281 -29.671875 42.4375 -28.828125 L 64.921875 0 L 43.015625 0 L 24.328125 -28.015625 Z M 33.4375 -64.8125 L 24.21875 -64.8125 L 24.21875 -41.625 L 33.4375 -41.625 C 35.976562 -41.625 38.34375 -42.625 40.53125 -44.625 C 42.71875 -46.625 43.8125 -49.507812 43.8125 -53.28125 C 43.8125 -56.882812 42.71875 -59.707031 40.53125 -61.75 C 38.34375 -63.789062 35.976562 -64.8125 33.4375 -64.8125 Z M 33.4375 -64.8125 "/></g></g></g><g fill="#000000" fill-opacity="1"><g transform="translate(99.1657, 144.09812)"><g><path d="M 24.21875 -28.015625 L 24.21875 0 L 6.921875 0 L 6.921875 -78.40625 L 36.328125 -78.40625 C 40.554688 -78.40625 44.492188 -77.347656 48.140625 -75.234375 C 51.796875 -73.128906 54.738281 -70.191406 56.96875 -66.421875 C 59.195312 -62.648438 60.3125 -58.269531 60.3125 -53.28125 C 60.3125 -47.96875 59.195312 -43.425781 56.96875 -39.65625 C 54.738281 -35.894531 51.796875 -33.015625 48.140625 -31.015625 C 44.492188 -29.015625 40.554688 -28.015625 36.328125 -28.015625 Z M 33.4375 -64.8125 L 24.21875 -64.8125 L 24.21875 -41.625 L 33.4375 -41.625 C 35.976562 -41.625 38.34375 -42.625 40.53125 -44.625 C 42.71875 -46.625 43.8125 -49.507812 43.8125 -53.28125 C 43.8125 -56.882812 42.71875 -59.707031 40.53125 -61.75 C 38.34375 -63.789062 35.976562 -64.8125 33.4375 -64.8125 Z M 33.4375 -64.8125 "/></g></g></g><g clip-path="url(#47bbb25658)"><path fill="#000000" d="M 248.59375 114.839844 L 246.546875 114.839844 C 249.394531 112.28125 251.589844 109.816406 253.132812 107.425781 C 255.980469 103.015625 257.433594 98.289062 257.433594 93.378906 C 257.433594 88.691406 256.128906 84.390625 253.5625 80.609375 C 250.996094 76.832031 242.957031 66.691406 233.707031 62.914062 C 229.429688 61.171875 223.808594 60.316406 216.476562 60.316406 C 209.40625 60.316406 203.917969 61.207031 199.730469 63.0625 C 195.433594 64.949219 192.027344 67.75 189.609375 71.363281 C 187.261719 74.882812 185.699219 79.515625 184.863281 85.539062 L 184.324219 89.433594 L 193.628906 98.699219 L 206.78125 99.753906 C 198.78125 105.90625 193.292969 111.28125 190.054688 116.097656 C 186.390625 121.566406 184.15625 127.515625 183.429688 133.742188 L 182.964844 137.875 L 192.269531 147.140625 L 257.898438 147.140625 L 257.898438 124.105469 Z M 248.59375 114.839844 " fill-opacity="1" fill-rule="nonzero"/></g><path fill="#ffffff" d="M 244.871094 134.167969 L 187.152344 134.167969 C 187.820312 128.496094 189.8125 123.160156 193.179688 118.15625 C 196.53125 113.152344 202.820312 107.242188 212.050781 100.441406 C 217.6875 96.269531 221.296875 93.101562 222.859375 90.933594 C 224.441406 88.765625 225.222656 86.707031 225.222656 84.761719 C 225.222656 82.667969 224.441406 80.871094 222.878906 79.367188 C 221.316406 77.886719 219.363281 77.125 217 77.125 C 214.542969 77.125 212.53125 77.886719 210.96875 79.425781 C 209.40625 80.960938 208.363281 83.667969 207.824219 87.558594 L 188.566406 86.039062 C 189.328125 80.648438 190.707031 76.441406 192.714844 73.402344 C 194.726562 70.363281 197.570312 68.046875 201.238281 66.433594 C 204.902344 64.839844 209.984375 64.023438 216.476562 64.023438 C 223.25 64.023438 228.515625 64.804688 232.273438 66.324219 C 236.035156 67.859375 238.992188 70.214844 241.152344 73.402344 C 243.308594 76.589844 244.390625 80.148438 244.390625 84.113281 C 244.390625 88.320312 243.160156 92.324219 240.6875 96.160156 C 238.210938 99.996094 233.726562 104.183594 227.195312 108.761719 C 223.324219 111.429688 220.738281 113.300781 219.417969 114.359375 C 218.113281 115.433594 216.570312 116.824219 214.804688 118.546875 L 244.855469 118.546875 L 244.855469 134.167969 Z M 244.871094 134.167969 " fill-opacity="1" fill-rule="nonzero"/><g clip-path="url(#8533710420)"><path fill="#000000" d="M 248.59375 114.839844 L 246.546875 114.839844 C 249.394531 112.28125 251.589844 109.816406 253.132812 107.425781 C 255.980469 103.015625 257.433594 98.289062 257.433594 93.378906 C 257.433594 88.691406 256.128906 84.390625 253.5625 80.609375 C 250.996094 76.832031 242.957031 66.691406 233.707031 62.914062 C 229.429688 61.171875 223.808594 60.316406 216.476562 60.316406 C 209.40625 60.316406 203.917969 61.207031 199.730469 63.0625 C 195.433594 64.949219 192.027344 67.75 189.609375 71.363281 C 187.261719 74.882812 185.699219 79.515625 184.863281 85.539062 L 184.324219 89.433594 L 193.628906 98.699219 L 206.78125 99.753906 C 198.78125 105.90625 193.292969 111.28125 190.054688 116.097656 C 186.390625 121.566406 184.15625 127.515625 183.429688 133.742188 L 182.964844 137.875 L 192.269531 147.140625 L 257.898438 147.140625 L 257.898438 124.105469 Z M 248.59375 114.839844 " fill-opacity="1" fill-rule="nonzero"/></g><path fill="#ffffff" d="M 244.871094 134.167969 L 187.152344 134.167969 C 187.820312 128.496094 189.8125 123.160156 193.179688 118.15625 C 196.53125 113.152344 202.820312 107.242188 212.050781 100.441406 C 217.6875 96.269531 221.296875 93.101562 222.859375 90.933594 C 224.441406 88.765625 225.222656 86.707031 225.222656 84.761719 C 225.222656 82.667969 224.441406 80.871094 222.878906 79.367188 C 221.316406 77.886719 219.363281 77.125 217 77.125 C 214.542969 77.125 212.53125 77.886719 210.96875 79.425781 C 209.40625 80.960938 208.363281 83.667969 207.824219 87.558594 L 188.566406 86.039062 C 189.328125 80.648438 190.707031 76.441406 192.714844 73.402344 C 194.726562 70.363281 197.570312 68.046875 201.238281 66.433594 C 204.902344 64.839844 209.984375 64.023438 216.476562 64.023438 C 223.25 64.023438 228.515625 64.804688 232.273438 66.324219 C 236.035156 67.859375 238.992188 70.214844 241.152344 73.402344 C 243.308594 76.589844 244.390625 80.148438 244.390625 84.113281 C 244.390625 88.320312 243.160156 92.324219 240.6875 96.160156 C 238.210938 99.996094 233.726562 104.183594 227.195312 108.761719 C 223.324219 111.429688 220.738281 113.300781 219.417969 114.359375 C 218.113281 115.433594 216.570312 116.824219 214.804688 118.546875 L 244.855469 118.546875 L 244.855469 134.167969 Z M 244.871094 134.167969 " fill-opacity="1" fill-rule="nonzero"/><g clip-path="url(#72f639c977)"><path fill="#000000" d="M 352.746094 85.976562 C 349.082031 78.402344 338.695312 67.714844 331.996094 63.9375 C 327.292969 61.265625 321.089844 59.917969 313.574219 59.917969 C 307.28125 59.917969 301.914062 61.023438 297.621094 63.199219 C 293.195312 65.429688 289.679688 68.78125 287.160156 73.132812 C 284.679688 77.425781 283.421875 82.234375 283.421875 87.414062 C 283.421875 95.039062 285.921875 101.472656 290.824219 106.539062 C 291.214844 106.945312 291.640625 107.292969 292.046875 107.664062 C 292.269531 107.902344 292.453125 108.140625 292.675781 108.382812 C 293.066406 108.789062 293.492188 109.136719 293.898438 109.507812 C 294.121094 109.746094 294.304688 109.984375 294.527344 110.226562 C 294.917969 110.628906 295.34375 110.980469 295.75 111.347656 C 295.972656 111.589844 296.15625 111.828125 296.378906 112.066406 C 296.75 112.453125 297.136719 112.765625 297.527344 113.136719 L 283.753906 114.867188 L 285.050781 119.050781 C 286.328125 123.160156 288.199219 126.679688 290.621094 129.5 C 291.546875 130.566406 299.488281 141.382812 309.207031 145.273438 C 312.855469 146.726562 317.539062 147.429688 323.554688 147.429688 C 333.863281 147.429688 342.121094 144.113281 348.0625 137.589844 C 353.910156 131.15625 356.875 121.1875 356.875 107.921875 C 356.855469 98.964844 355.464844 91.578125 352.746094 85.976562 Z M 318.554688 93.085938 C 318.816406 91.761719 319.242188 90.691406 319.871094 89.972656 C 319.628906 91.261719 319.183594 92.3125 318.554688 93.085938 Z M 318.554688 93.085938 " fill-opacity="1" fill-rule="nonzero"/></g><path fill="#ffffff" d="M 288.585938 117.964844 L 307.617188 115.585938 C 308.117188 118.242188 308.96875 120.101562 310.152344 121.207031 C 311.335938 122.292969 312.796875 122.847656 314.519531 122.847656 C 317.59375 122.847656 319.980469 121.300781 321.703125 118.222656 C 322.960938 115.9375 323.886719 111.128906 324.515625 103.773438 C 322.222656 106.117188 319.886719 107.828125 317.464844 108.917969 C 315.058594 110.003906 312.261719 110.554688 309.097656 110.554688 C 302.914062 110.554688 297.710938 108.382812 293.472656 104.015625 C 289.253906 99.609375 287.125 94.082031 287.125 87.414062 C 287.125 82.859375 288.199219 78.714844 290.363281 74.972656 C 292.527344 71.234375 295.507812 68.394531 299.285156 66.480469 C 303.082031 64.5625 307.855469 63.605469 313.574219 63.605469 C 320.460938 63.605469 325.996094 64.785156 330.160156 67.144531 C 334.328125 69.5 337.660156 73.242188 340.140625 78.363281 C 342.636719 83.488281 343.878906 90.269531 343.878906 98.6875 C 343.878906 111.074219 341.269531 120.136719 336.03125 125.886719 C 330.792969 131.636719 323.554688 134.511719 314.28125 134.511719 C 308.800781 134.511719 304.46875 133.886719 301.304688 132.613281 C 298.136719 131.34375 295.507812 129.5 293.417969 127.066406 C 291.324219 124.652344 289.714844 121.613281 288.585938 117.964844 Z M 323.832031 87.375 C 323.832031 83.671875 322.886719 80.761719 321.015625 78.660156 C 319.148438 76.558594 316.851562 75.507812 314.148438 75.507812 C 311.613281 75.507812 309.503906 76.464844 307.835938 78.363281 C 306.152344 80.261719 305.320312 83.117188 305.320312 86.933594 C 305.320312 90.765625 306.191406 93.695312 307.929688 95.722656 C 309.671875 97.75 311.835938 98.761719 314.445312 98.761719 C 317.128906 98.761719 319.386719 97.785156 321.164062 95.816406 C 322.925781 93.824219 323.832031 91.023438 323.832031 87.375 Z M 323.832031 87.375 " fill-opacity="1" fill-rule="nonzero"/><g clip-path="url(#af676258c0)"><path fill="#000000" d="M 435.914062 85.976562 C 432.246094 78.402344 421.863281 67.714844 415.164062 63.9375 C 410.460938 61.265625 404.257812 59.917969 396.742188 59.917969 C 390.449219 59.917969 385.082031 61.023438 380.789062 63.199219 C 376.363281 65.429688 372.847656 68.78125 370.328125 73.132812 C 367.847656 77.425781 366.589844 82.234375 366.589844 87.414062 C 366.589844 95.039062 369.089844 101.472656 373.992188 106.539062 C 374.382812 106.945312 374.808594 107.292969 375.214844 107.664062 C 375.4375 107.902344 375.621094 108.140625 375.84375 108.382812 C 376.234375 108.789062 376.660156 109.136719 377.066406 109.507812 C 377.289062 109.746094 377.472656 109.984375 377.695312 110.226562 C 378.085938 110.628906 378.511719 110.980469 378.917969 111.347656 C 379.140625 111.589844 379.324219 111.828125 379.546875 112.066406 C 379.917969 112.453125 380.304688 112.765625 380.695312 113.136719 L 366.921875 114.867188 L 368.21875 119.050781 C 369.496094 123.160156 371.363281 126.679688 373.789062 129.5 C 374.714844 130.566406 382.65625 141.382812 392.375 145.273438 C 396.023438 146.726562 400.707031 147.429688 406.722656 147.429688 C 417.03125 147.429688 425.289062 144.113281 431.230469 137.589844 C 437.078125 131.15625 440.042969 121.1875 440.042969 107.921875 C 440.023438 98.964844 438.632812 91.578125 435.914062 85.976562 Z M 401.722656 93.085938 C 401.984375 91.761719 402.40625 90.691406 403.039062 89.972656 C 402.796875 91.261719 402.351562 92.3125 401.722656 93.085938 Z M 401.722656 93.085938 " fill-opacity="1" fill-rule="nonzero"/></g><path fill="#ffffff" d="M 371.753906 117.964844 L 390.785156 115.585938 C 391.28125 118.242188 392.132812 120.101562 393.320312 121.207031 C 394.503906 122.292969 395.964844 122.847656 397.6875 122.847656 C 400.761719 122.847656 403.148438 121.300781 404.871094 118.222656 C 406.128906 115.9375 407.054688 111.128906 407.683594 103.773438 C 405.386719 106.117188 403.054688 107.828125 400.632812 108.917969 C 398.226562 110.003906 395.429688 110.554688 392.265625 110.554688 C 386.082031 110.554688 380.878906 108.382812 376.640625 104.015625 C 372.421875 99.609375 370.292969 94.082031 370.292969 87.414062 C 370.292969 82.859375 371.363281 78.714844 373.53125 74.972656 C 375.695312 71.234375 378.675781 68.394531 382.453125 66.480469 C 386.25 64.5625 391.023438 63.605469 396.742188 63.605469 C 403.628906 63.605469 409.164062 64.785156 413.328125 67.144531 C 417.496094 69.5 420.828125 73.242188 423.308594 78.363281 C 425.804688 83.488281 427.046875 90.269531 427.046875 98.6875 C 427.046875 111.074219 424.4375 120.136719 419.199219 125.886719 C 413.960938 131.636719 406.722656 134.511719 397.445312 134.511719 C 391.96875 134.511719 387.636719 133.886719 384.472656 132.613281 C 381.304688 131.34375 378.675781 129.5 376.585938 127.066406 C 374.492188 124.652344 372.882812 121.613281 371.753906 117.964844 Z M 407 87.375 C 407 83.671875 406.054688 80.761719 404.183594 78.660156 C 402.316406 76.558594 400.019531 75.507812 397.316406 75.507812 C 394.78125 75.507812 392.671875 76.464844 391.003906 78.363281 C 389.320312 80.261719 388.488281 83.117188 388.488281 86.933594 C 388.488281 90.765625 389.359375 93.695312 391.097656 95.722656 C 392.839844 97.75 395.003906 98.761719 397.613281 98.761719 C 400.296875 98.761719 402.554688 97.785156 404.332031 95.816406 C 406.09375 93.824219 407 91.023438 407 87.375 Z M 407 87.375 " fill-opacity="1" fill-rule="nonzero"/><g clip-path="url(#6afa0839a3)"><path fill="#000000" d="M 519.082031 85.976562 C 515.414062 78.402344 505.03125 67.714844 498.328125 63.9375 C 493.628906 61.265625 487.425781 59.917969 479.910156 59.917969 C 473.617188 59.917969 468.25 61.023438 463.953125 63.199219 C 459.53125 65.429688 456.015625 68.78125 453.496094 73.132812 C 451.015625 77.425781 449.757812 82.234375 449.757812 87.414062 C 449.757812 95.039062 452.257812 101.472656 457.160156 106.539062 C 457.550781 106.945312 457.976562 107.292969 458.382812 107.664062 C 458.605469 107.902344 458.789062 108.140625 459.011719 108.382812 C 459.402344 108.789062 459.828125 109.136719 460.234375 109.507812 C 460.457031 109.746094 460.640625 109.984375 460.863281 110.226562 C 461.253906 110.628906 461.679688 110.980469 462.085938 111.347656 C 462.308594 111.589844 462.492188 111.828125 462.714844 112.066406 C 463.085938 112.453125 463.472656 112.765625 463.863281 113.136719 L 450.089844 114.867188 L 451.386719 119.050781 C 452.664062 123.160156 454.53125 126.679688 456.957031 129.5 C 457.882812 130.566406 465.824219 141.382812 475.542969 145.273438 C 479.191406 146.726562 483.871094 147.429688 489.890625 147.429688 C 500.199219 147.429688 508.457031 144.113281 514.398438 137.589844 C 520.246094 131.15625 523.207031 121.1875 523.207031 107.921875 C 523.191406 98.964844 521.800781 91.578125 519.082031 85.976562 Z M 484.890625 93.085938 C 485.148438 91.761719 485.574219 90.691406 486.207031 89.972656 C 485.964844 91.261719 485.519531 92.3125 484.890625 93.085938 Z M 484.890625 93.085938 " fill-opacity="1" fill-rule="nonzero"/></g><path fill="#ffffff" d="M 454.921875 117.964844 L 473.949219 115.585938 C 474.449219 118.242188 475.300781 120.101562 476.488281 121.207031 C 477.671875 122.292969 479.132812 122.847656 480.855469 122.847656 C 483.929688 122.847656 486.316406 121.300781 488.039062 118.222656 C 489.296875 115.9375 490.222656 111.128906 490.851562 103.773438 C 488.554688 106.117188 486.222656 107.828125 483.800781 108.917969 C 481.390625 110.003906 478.597656 110.554688 475.433594 110.554688 C 469.25 110.554688 464.046875 108.382812 459.808594 104.015625 C 455.589844 99.609375 453.460938 94.082031 453.460938 87.414062 C 453.460938 82.859375 454.53125 78.714844 456.699219 74.972656 C 458.863281 71.234375 461.84375 68.394531 465.621094 66.480469 C 469.414062 64.5625 474.191406 63.605469 479.910156 63.605469 C 486.796875 63.605469 492.332031 64.785156 496.496094 67.144531 C 500.664062 69.5 503.996094 73.242188 506.476562 78.363281 C 508.972656 83.488281 510.214844 90.269531 510.214844 98.6875 C 510.214844 111.074219 507.605469 120.136719 502.367188 125.886719 C 497.125 131.636719 489.890625 134.511719 480.613281 134.511719 C 475.136719 134.511719 470.804688 133.886719 467.640625 132.613281 C 464.472656 131.34375 461.84375 129.5 459.753906 127.066406 C 457.660156 124.652344 456.050781 121.613281 454.921875 117.964844 Z M 490.167969 87.375 C 490.167969 83.671875 489.222656 80.761719 487.351562 78.660156 C 485.484375 76.558594 483.1875 75.507812 480.484375 75.507812 C 477.949219 75.507812 475.839844 76.464844 474.171875 78.363281 C 472.488281 80.261719 471.65625 83.117188 471.65625 86.933594 C 471.65625 90.765625 472.527344 93.695312 474.265625 95.722656 C 476.003906 97.75 478.171875 98.761719 480.78125 98.761719 C 483.464844 98.761719 485.722656 97.785156 487.5 95.816406 C 489.257812 93.824219 490.167969 91.023438 490.167969 87.375 Z M 490.167969 87.375 " fill-opacity="1" fill-rule="nonzero"/><g clip-path="url(#5742dd1dc0)"><path fill="#000000" d="M 617.996094 85.976562 C 614.332031 78.402344 603.945312 67.714844 597.246094 63.9375 C 592.542969 61.265625 586.34375 59.917969 578.828125 59.917969 C 572.53125 59.917969 567.164062 61.023438 562.871094 63.199219 C 558.445312 65.429688 554.929688 68.78125 552.410156 73.132812 C 549.929688 77.425781 548.671875 82.234375 548.671875 87.414062 C 548.671875 95.039062 551.171875 101.472656 556.078125 106.539062 C 556.464844 106.945312 556.890625 107.292969 557.296875 107.664062 C 557.519531 107.902344 557.707031 108.140625 557.929688 108.382812 C 558.316406 108.789062 558.742188 109.136719 559.148438 109.507812 C 559.371094 109.746094 559.558594 109.984375 559.777344 110.226562 C 560.167969 110.628906 560.59375 110.980469 561 111.347656 C 561.222656 111.589844 561.40625 111.828125 561.628906 112.066406 C 562 112.453125 562.390625 112.765625 562.777344 113.136719 L 549.003906 114.867188 L 550.300781 119.050781 C 551.578125 123.160156 553.449219 126.679688 555.875 129.5 C 556.796875 130.566406 564.738281 141.382812 574.457031 145.273438 C 578.105469 146.726562 582.789062 147.429688 588.804688 147.429688 C 599.113281 147.429688 607.371094 144.113281 613.3125 137.589844 C 619.164062 131.15625 622.125 121.1875 622.125 107.921875 C 622.105469 98.964844 620.71875 91.578125 617.996094 85.976562 Z M 583.804688 93.085938 C 584.066406 91.761719 584.492188 90.691406 585.121094 89.972656 C 584.878906 91.261719 584.4375 92.3125 583.804688 93.085938 Z M 583.804688 93.085938 " fill-opacity="1" fill-rule="nonzero"/></g><path fill="#ffffff" d="M 553.835938 117.964844 L 572.867188 115.585938 C 573.367188 118.242188 574.21875 120.101562 575.402344 121.207031 C 576.585938 122.292969 578.050781 122.847656 579.769531 122.847656 C 582.84375 122.847656 585.230469 121.300781 586.953125 118.222656 C 588.210938 115.9375 589.136719 111.128906 589.765625 103.773438 C 587.472656 106.117188 585.140625 107.828125 582.714844 108.917969 C 580.308594 110.003906 577.511719 110.554688 574.347656 110.554688 C 568.164062 110.554688 562.964844 108.382812 558.722656 104.015625 C 554.503906 99.609375 552.375 94.082031 552.375 87.414062 C 552.375 82.859375 553.449219 78.714844 555.613281 74.972656 C 557.78125 71.234375 560.761719 68.394531 564.535156 66.480469 C 568.332031 64.5625 573.105469 63.605469 578.828125 63.605469 C 585.714844 63.605469 591.246094 64.785156 595.414062 67.144531 C 599.578125 69.5 602.910156 73.242188 605.390625 78.363281 C 607.890625 83.488281 609.128906 90.269531 609.128906 98.6875 C 609.128906 111.074219 606.519531 120.136719 601.28125 125.886719 C 596.042969 131.636719 588.804688 134.511719 579.53125 134.511719 C 574.050781 134.511719 569.71875 133.886719 566.554688 132.613281 C 563.390625 131.34375 560.761719 129.5 558.667969 127.066406 C 556.578125 124.652344 554.964844 121.613281 553.835938 117.964844 Z M 589.082031 87.375 C 589.082031 83.671875 588.136719 80.761719 586.269531 78.660156 C 584.398438 76.558594 582.101562 75.507812 579.402344 75.507812 C 576.863281 75.507812 574.753906 76.464844 573.089844 78.363281 C 571.402344 80.261719 570.570312 83.117188 570.570312 86.933594 C 570.570312 90.765625 571.441406 93.695312 573.179688 95.722656 C 574.921875 97.75 577.085938 98.761719 579.695312 98.761719 C 582.382812 98.761719 584.640625 97.785156 586.417969 95.816406 C 588.175781 93.824219 589.082031 91.023438 589.082031 87.375 Z M 589.082031 87.375 " fill-opacity="1" fill-rule="nonzero"/><g clip-path="url(#57235d24b6)"><path fill="#000000" d="M 701.164062 85.976562 C 697.5 78.402344 687.113281 67.714844 680.414062 63.9375 C 675.710938 61.265625 669.511719 59.917969 661.996094 59.917969 C 655.699219 59.917969 650.332031 61.023438 646.039062 63.199219 C 641.613281 65.429688 638.097656 68.78125 635.578125 73.132812 C 633.097656 77.425781 631.839844 82.234375 631.839844 87.414062 C 631.839844 95.039062 634.339844 101.472656 639.246094 106.539062 C 639.632812 106.945312 640.058594 107.292969 640.464844 107.664062 C 640.6875 107.902344 640.875 108.140625 641.097656 108.382812 C 641.484375 108.789062 641.910156 109.136719 642.316406 109.507812 C 642.539062 109.746094 642.726562 109.984375 642.945312 110.226562 C 643.335938 110.628906 643.761719 110.980469 644.167969 111.347656 C 644.390625 111.589844 644.574219 111.828125 644.796875 112.066406 C 645.167969 112.453125 645.558594 112.765625 645.945312 113.136719 L 632.171875 114.867188 L 633.46875 119.050781 C 634.746094 123.160156 636.617188 126.679688 639.039062 129.5 C 639.964844 130.566406 647.90625 141.382812 657.625 145.273438 C 661.273438 146.726562 665.957031 147.429688 671.972656 147.429688 C 682.28125 147.429688 690.539062 144.113281 696.480469 137.589844 C 702.332031 131.15625 705.292969 121.1875 705.292969 107.921875 C 705.273438 98.964844 703.886719 91.578125 701.164062 85.976562 Z M 666.972656 93.085938 C 667.234375 91.761719 667.660156 90.691406 668.289062 89.972656 C 668.046875 91.261719 667.605469 92.3125 666.972656 93.085938 Z M 666.972656 93.085938 " fill-opacity="1" fill-rule="nonzero"/></g><path fill="#ffffff" d="M 637.003906 117.964844 L 656.035156 115.585938 C 656.535156 118.242188 657.386719 120.101562 658.570312 121.207031 C 659.753906 122.292969 661.21875 122.847656 662.9375 122.847656 C 666.011719 122.847656 668.398438 121.300781 670.121094 118.222656 C 671.378906 115.9375 672.304688 111.128906 672.933594 103.773438 C 670.640625 106.117188 668.308594 107.828125 665.882812 108.917969 C 663.476562 110.003906 660.679688 110.554688 657.515625 110.554688 C 651.332031 110.554688 646.128906 108.382812 641.890625 104.015625 C 637.671875 99.609375 635.542969 94.082031 635.542969 87.414062 C 635.542969 82.859375 636.617188 78.714844 638.78125 74.972656 C 640.949219 71.234375 643.929688 68.394531 647.703125 66.480469 C 651.5 64.5625 656.273438 63.605469 661.996094 63.605469 C 668.878906 63.605469 674.414062 64.785156 678.582031 67.144531 C 682.746094 69.5 686.078125 73.242188 688.558594 78.363281 C 691.058594 83.488281 692.296875 90.269531 692.296875 98.6875 C 692.296875 111.074219 689.6875 120.136719 684.449219 125.886719 C 679.210938 131.636719 671.972656 134.511719 662.699219 134.511719 C 657.21875 134.511719 652.886719 133.886719 649.722656 132.613281 C 646.554688 131.34375 643.929688 129.5 641.835938 127.066406 C 639.746094 124.652344 638.132812 121.613281 637.003906 117.964844 Z M 672.25 87.375 C 672.25 83.671875 671.304688 80.761719 669.4375 78.660156 C 667.566406 76.558594 665.269531 75.507812 662.570312 75.507812 C 660.03125 75.507812 657.921875 76.464844 656.257812 78.363281 C 654.570312 80.261719 653.738281 83.117188 653.738281 86.933594 C 653.738281 90.765625 654.609375 93.695312 656.347656 95.722656 C 658.089844 97.75 660.253906 98.761719 662.863281 98.761719 C 665.546875 98.761719 667.808594 97.785156 669.585938 95.816406 C 671.34375 93.824219 672.25 91.023438 672.25 87.375 Z M 672.25 87.375 " fill-opacity="1" fill-rule="nonzero"/><g clip-path="url(#72b107b5ed)"><path fill="#000000" d="M 784.332031 85.976562 C 780.667969 78.402344 770.28125 67.714844 763.582031 63.9375 C 758.878906 61.265625 752.679688 59.917969 745.164062 59.917969 C 738.867188 59.917969 733.5 61.023438 729.207031 63.199219 C 724.78125 65.429688 721.265625 68.78125 718.746094 73.132812 C 716.265625 77.425781 715.007812 82.234375 715.007812 87.414062 C 715.007812 95.039062 717.507812 101.472656 722.414062 106.539062 C 722.800781 106.945312 723.226562 107.292969 723.632812 107.664062 C 723.855469 107.902344 724.042969 108.140625 724.261719 108.382812 C 724.652344 108.789062 725.078125 109.136719 725.484375 109.507812 C 725.707031 109.746094 725.890625 109.984375 726.113281 110.226562 C 726.503906 110.628906 726.929688 110.980469 727.335938 111.347656 C 727.558594 111.589844 727.742188 111.828125 727.964844 112.066406 C 728.335938 112.453125 728.726562 112.765625 729.113281 113.136719 L 715.339844 114.867188 L 716.636719 119.050781 C 717.914062 123.160156 719.785156 126.679688 722.207031 129.5 C 723.132812 130.566406 731.074219 141.382812 740.792969 145.273438 C 744.441406 146.726562 749.125 147.429688 755.140625 147.429688 C 765.449219 147.429688 773.707031 144.113281 779.648438 137.589844 C 785.496094 131.15625 788.460938 121.1875 788.460938 107.921875 C 788.441406 98.964844 787.054688 91.578125 784.332031 85.976562 Z M 750.140625 93.085938 C 750.402344 91.761719 750.828125 90.691406 751.457031 89.972656 C 751.214844 91.261719 750.769531 92.3125 750.140625 93.085938 Z M 750.140625 93.085938 " fill-opacity="1" fill-rule="nonzero"/></g><path fill="#ffffff" d="M 720.171875 117.964844 L 739.203125 115.585938 C 739.703125 118.242188 740.554688 120.101562 741.738281 121.207031 C 742.921875 122.292969 744.386719 122.847656 746.105469 122.847656 C 749.179688 122.847656 751.566406 121.300781 753.289062 118.222656 C 754.546875 115.9375 755.472656 111.128906 756.101562 103.773438 C 753.808594 106.117188 751.476562 107.828125 749.050781 108.917969 C 746.644531 110.003906 743.847656 110.554688 740.683594 110.554688 C 734.5 110.554688 729.296875 108.382812 725.058594 104.015625 C 720.839844 99.609375 718.710938 94.082031 718.710938 87.414062 C 718.710938 82.859375 719.785156 78.714844 721.949219 74.972656 C 724.117188 71.234375 727.09375 68.394531 730.871094 66.480469 C 734.667969 64.5625 739.441406 63.605469 745.164062 63.605469 C 752.046875 63.605469 757.582031 64.785156 761.75 67.144531 C 765.914062 69.5 769.246094 73.242188 771.726562 78.363281 C 774.226562 83.488281 775.464844 90.269531 775.464844 98.6875 C 775.464844 111.074219 772.855469 120.136719 767.617188 125.886719 C 762.378906 131.636719 755.140625 134.511719 745.867188 134.511719 C 740.386719 134.511719 736.054688 133.886719 732.890625 132.613281 C 729.722656 131.34375 727.09375 129.5 725.003906 127.066406 C 722.914062 124.652344 721.300781 121.613281 720.171875 117.964844 Z M 755.417969 87.375 C 755.417969 83.671875 754.472656 80.761719 752.605469 78.660156 C 750.734375 76.558594 748.4375 75.507812 745.734375 75.507812 C 743.199219 75.507812 741.089844 76.464844 739.425781 78.363281 C 737.738281 80.261719 736.90625 83.117188 736.90625 86.933594 C 736.90625 90.765625 737.777344 93.695312 739.515625 95.722656 C 741.257812 97.75 743.421875 98.761719 746.03125 98.761719 C 748.714844 98.761719 750.976562 97.785156 752.753906 95.816406 C 754.511719 93.824219 755.417969 91.023438 755.417969 87.375 Z M 755.417969 87.375 " fill-opacity="1" fill-rule="nonzero"/><g clip-path="url(#16c12af176)"><path fill="#000000" d="M 272.207031 125.785156 C 278.214844 125.785156 283.082031 130.65625 283.082031 136.660156 C 283.082031 142.664062 278.214844 147.535156 272.207031 147.535156 C 266.203125 147.535156 261.335938 142.664062 261.335938 136.660156 C 261.335938 130.65625 266.203125 125.785156 272.207031 125.785156 Z M 272.207031 125.785156 " fill-opacity="1" fill-rule="evenodd"/></g><g clip-path="url(#e2a45effa0)"><path fill="#000000" d="M 537.800781 125.785156 C 543.804688 125.785156 548.671875 130.65625 548.671875 136.660156 C 548.671875 142.664062 543.804688 147.535156 537.800781 147.535156 C 531.792969 147.535156 526.925781 142.664062 526.925781 136.660156 C 526.925781 130.65625 531.792969 125.785156 537.800781 125.785156 Z M 537.800781 125.785156 " fill-opacity="1" fill-rule="evenodd"/></g></svg>